<svg width="72" height="72" viewBox="0 0 72 72" fill="none" xmlns="http://www.w3.org/2000/svg">
<path d="M61.4312 0H10.5688C4.73179 0 0 4.73179 0 10.5688V61.4312C0 67.2682 4.73179 72 10.5688 72H61.4312C67.2682 72 72 67.2682 72 61.4312V10.5688C72 4.73179 67.2682 0 61.4312 0Z" fill="#FF8400"/>
<path d="M59.5907 42.574L54.3063 31.1046C53.1859 28.6736 51.5391 26.6592 49.5639 25.1405C46.7915 22.9943 43.3728 21.8184 39.8759 21.8184C39.4955 21.8184 39.115 21.8342 38.7346 21.8605C36.8637 21.9977 34.9824 22.4775 33.1792 23.3265C29.3332 25.1405 26.4148 28.3625 24.9608 32.4018C23.5121 36.4412 23.6997 40.8074 25.4924 44.6991L26.3366 46.5289C28.5671 46.9772 30.8289 46.434 32.6008 45.1473L31.1624 42.0256C30.0732 39.6631 29.9586 37.0159 30.8393 34.5639C31.72 32.1171 33.4919 30.1607 35.8214 29.0586C37.2077 28.4047 38.6721 28.1147 40.1052 28.1516C43.4718 28.2307 46.682 30.0974 48.3705 33.2456C48.4643 33.4196 48.5529 33.5989 48.6363 33.7782L53.9207 45.2475C55.0099 47.61 55.1245 50.2624 54.2438 52.7092C53.3631 55.156 51.5912 57.1124 49.2565 58.2145C44.5453 60.4398 38.9431 58.4624 36.5979 53.8061C34.7844 54.8713 32.7832 55.6042 30.6725 55.947L30.7768 56.1685C33.4711 62.0165 39.2193 65.4547 45.2072 65.4547C47.4533 65.4547 49.7359 64.9696 51.8987 63.9518C55.7499 62.1326 58.6683 58.9106 60.1223 54.8713C61.571 50.8372 61.3834 46.4709 59.5907 42.574Z" fill="#FFD4A6"/>
<path fill-rule="evenodd" clip-rule="evenodd" d="M22.3396 21.9852C22.3395 21.9854 22.3395 21.9855 22.3394 21.9857L17.9404 34.35C16.0679 39.61 18.7207 45.4322 23.8644 47.3496C29.0044 49.2657 34.6938 46.5513 36.5677 41.2881C36.5678 41.2879 36.5678 41.2877 36.5679 41.2875L40.9668 28.9238L40.967 28.9232C42.8394 23.6632 40.1866 17.841 35.0429 15.9236C29.9029 14.0076 24.2135 16.722 22.3396 21.9852ZM16.298 19.7336C19.3859 11.0593 28.7635 6.58017 37.2437 9.74136C45.7203 12.9012 50.0974 22.497 47.0086 31.1748C47.0085 31.175 47.0084 31.1751 47.0084 31.1753L42.6095 43.5391L42.6093 43.5396C39.5214 52.214 30.1439 56.6931 21.6636 53.5319C13.187 50.3721 8.80993 40.7763 11.8987 32.0985C11.8988 32.0983 11.8989 32.0981 11.8989 32.0979L16.298 19.7336Z" fill="#FFF4E8"/>
</svg>
