<svg width="18" height="18" viewBox="0 0 18 18" fill="none" xmlns="http://www.w3.org/2000/svg">
<path fill-rule="evenodd" clip-rule="evenodd" d="M1.38701 0.429688C0.759055 0.429688 0.25 0.928354 0.25 1.54349V6.77351C0.25 7.38865 0.759055 7.88731 1.38701 7.88731H6.72599C7.35394 7.88731 7.86299 7.38865 7.86299 6.77351V1.54349C7.86299 0.928353 7.35394 0.429688 6.72599 0.429688H1.38701ZM1.93079 6.24083V2.07618H6.1822V6.24083H1.93079Z" fill="currentColor"/>
<path fill-rule="evenodd" clip-rule="evenodd" d="M11.274 0.429688C10.6461 0.429688 10.137 0.928354 10.137 1.54349V6.77351C10.137 7.38865 10.6461 7.88731 11.274 7.88731H16.613C17.2409 7.88731 17.75 7.38865 17.75 6.77351V1.54349C17.75 0.928353 17.2409 0.429688 16.613 0.429688H11.274ZM11.8178 6.24083V2.07618H16.0692V6.24083H11.8178Z" fill="currentColor"/>
<path fill-rule="evenodd" clip-rule="evenodd" d="M0.25 11.2287C0.25 10.6136 0.759055 10.1149 1.38701 10.1149H6.72599C7.35394 10.1149 7.86299 10.6136 7.86299 11.2287V16.4587C7.86299 17.0739 7.35394 17.5725 6.72599 17.5725H1.38701C0.759055 17.5725 0.25 17.0739 0.25 16.4587V11.2287ZM1.93079 11.7614V15.9261H6.1822V11.7614H1.93079Z" fill="currentColor"/>
<path fill-rule="evenodd" clip-rule="evenodd" d="M11.274 10.1149C10.6461 10.1149 10.137 10.6136 10.137 11.2287V16.4587C10.137 17.0739 10.6461 17.5725 11.274 17.5725H16.613C17.2409 17.5725 17.75 17.0739 17.75 16.4587V11.2287C17.75 10.6136 17.2409 10.1149 16.613 10.1149H11.274ZM11.8178 15.9261V11.7614H16.0692V15.9261H11.8178Z" fill="currentColor"/>
</svg>



