<svg width="20" height="20" viewBox="0 0 20 20" fill="none" xmlns="http://www.w3.org/2000/svg">
<rect x="2" y="2" width="16" height="16" rx="8" fill="#F44336"/>
<path fill-rule="evenodd" clip-rule="evenodd" d="M9.99935 6.16666C9.53911 6.16666 9.16602 6.53975 9.16602 6.99999V10.3333C9.16602 10.7936 9.53911 11.1667 9.99935 11.1667C10.4596 11.1667 10.8327 10.7936 10.8327 10.3333V6.99999C10.8327 6.53975 10.4596 6.16666 9.99935 6.16666ZM9.99935 12.1667C9.53911 12.1667 9.16602 12.5398 9.16602 13C9.16602 13.4602 9.53911 13.8333 9.99935 13.8333C10.4596 13.8333 10.8327 13.4602 10.8327 13C10.8327 12.5398 10.4596 12.1667 9.99935 12.1667Z" fill="white"/>
</svg>
