<svg width="20" height="20" viewBox="0 0 20 20" fill="none" xmlns="http://www.w3.org/2000/svg">
<g id="Union">
<path fill-rule="evenodd" clip-rule="evenodd" d="M1.29943 0C0.581777 0 0 0.581777 0 1.29944V7.40113C0 8.11879 0.581777 8.70056 1.29944 8.70056H7.40113C8.11879 8.70056 8.70056 8.11879 8.70056 7.40113V1.29943C8.70056 0.581777 8.11879 0 7.40113 0H1.29943ZM1.9209 6.77966V1.9209H6.77966V6.77966H1.9209Z" fill="currentColor"/>
<path fill-rule="evenodd" clip-rule="evenodd" d="M12.5989 0C11.8812 0 11.2994 0.581777 11.2994 1.29944V7.40113C11.2994 8.11879 11.8812 8.70056 12.5989 8.70056H18.7006C19.4182 8.70056 20 8.11879 20 7.40113V1.29943C20 0.581777 19.4182 0 18.7006 0H12.5989ZM13.2203 6.77966V1.9209H18.0791V6.77966H13.2203Z" fill="currentColor"/>
<path fill-rule="evenodd" clip-rule="evenodd" d="M0 12.5989C0 11.8812 0.581777 11.2994 1.29943 11.2994H7.40113C8.11879 11.2994 8.70056 11.8812 8.70056 12.5989V18.7006C8.70056 19.4182 8.11879 20 7.40113 20H1.29944C0.581777 20 0 19.4182 0 18.7006V12.5989ZM1.9209 13.2203V18.0791H6.77966V13.2203H1.9209Z" fill="currentColor"/>
<path fill-rule="evenodd" clip-rule="evenodd" d="M12.5989 11.2994C11.8812 11.2994 11.2994 11.8812 11.2994 12.5989V18.7006C11.2994 19.4182 11.8812 20 12.5989 20H18.7006C19.4182 20 20 19.4182 20 18.7006V12.5989C20 11.8812 19.4182 11.2994 18.7006 11.2994H12.5989ZM13.2203 18.0791V13.2203H18.0791V18.0791H13.2203Z" fill="currentColor"/>
</g>
</svg>
