<svg width="18" height="16" viewBox="0 0 18 16" fill="none" xmlns="http://www.w3.org/2000/svg">
<g id="Union">
<path d="M0.0996094 0.999976C0.0996094 0.502919 0.502553 0.0999756 0.999609 0.0999756H16.9996C17.4967 0.0999756 17.8996 0.502919 17.8996 0.999976C17.8996 1.49703 17.4967 1.89998 16.9996 1.89998H0.999609C0.502553 1.89998 0.0996094 1.49703 0.0996094 0.999976Z" fill="currentColor"/>
<path d="M0.0996094 15C0.0996094 14.5029 0.502553 14.1 0.999609 14.1H16.9996C17.4967 14.1 17.8996 14.5029 17.8996 15C17.8996 15.497 17.4967 15.9 16.9996 15.9H0.999609C0.502553 15.9 0.0996094 15.497 0.0996094 15Z" fill="currentColor"/>
<path d="M0.999609 7.09998C0.502553 7.09998 0.0996094 7.50292 0.0996094 7.99998C0.0996094 8.49703 0.502553 8.89998 0.999609 8.89998H16.9996C17.4967 8.89998 17.8996 8.49703 17.8996 7.99998C17.8996 7.50292 17.4967 7.09998 16.9996 7.09998H0.999609Z" fill="currentColor"/>
</g>
</svg>
